<svg width="120" height="100" viewBox="0 0 120 100" fill="none" xmlns="http://www.w3.org/2000/svg">
<path d="M119.808 49.7276C119.801 44.4319 118.264 39.2509 115.382 34.8081C112.5 30.3652 108.395 26.8498 103.562 24.6847V23.3293C103.557 18.1763 101.848 13.1698 98.7008 9.08964C95.5536 5.00948 91.1452 2.08485 86.1625 0.771383C81.1798 -0.542084 75.9026 -0.170617 71.153 1.82791C66.4034 3.82643 62.4482 7.33978 59.9036 11.8206C57.359 7.33978 53.4038 3.82643 48.6542 1.82791C43.9046 -0.170617 38.6274 -0.542084 33.6447 0.771383C28.662 2.08485 24.2536 5.00948 21.1064 9.08964C17.9592 13.1698 16.2499 18.1763 16.2448 23.3293V24.6847C11.4081 26.8425 7.29992 30.3552 4.41705 34.798C1.53417 39.2409 0 44.4238 0 49.72C0 55.0162 1.53417 60.1991 4.41705 64.642C7.29992 69.0848 11.4081 72.5975 16.2448 74.7553V76.126C16.2499 81.2789 17.9592 86.2854 21.1064 90.3656C24.2536 94.4457 28.662 97.3704 33.6447 98.6838C38.6274 99.9973 43.9046 99.6258 48.6542 97.6273C53.4038 95.6288 57.359 92.1154 59.9036 87.6346C62.4482 92.1154 66.4034 95.6288 71.153 97.6273C75.9026 99.6258 81.1798 99.9973 86.1625 98.6838C91.1452 97.3704 95.5536 94.4457 98.7008 90.3656C101.848 86.2854 103.557 81.2789 103.562 76.126V74.7553C108.395 72.5944 112.5 69.0821 115.383 64.6415C118.265 60.2009 119.802 55.0216 119.808 49.7276ZM39.5972 93.3864C35.1111 93.3886 30.8005 91.6442 27.5786 88.5227C24.3566 85.4012 22.4766 81.1479 22.3367 76.6641C24.0103 76.9814 25.7099 77.1412 27.4133 77.1413H31.4746C32.2824 77.1413 33.0572 76.8204 33.6284 76.2492C34.1997 75.6779 34.5206 74.9032 34.5206 74.0953C34.5206 73.2875 34.1997 72.5127 33.6284 71.9415C33.0572 71.3703 32.2824 71.0494 31.4746 71.0494H27.4133C22.3806 71.0535 17.5086 69.2772 13.6594 66.0348C9.8103 62.7924 7.23218 58.293 6.38125 53.3327C5.53032 48.3723 6.46144 43.2709 9.00985 38.9311C11.5583 34.5912 15.5597 31.2927 20.3061 29.6192C20.9002 29.4091 21.4145 29.02 21.7782 28.5053C22.1419 27.9907 22.337 27.376 22.3367 26.7458V23.3293C22.3367 18.7515 24.1552 14.3612 27.3922 11.1243C30.6292 7.8873 35.0194 6.06879 39.5972 6.06879C44.1749 6.06879 48.5652 7.8873 51.8022 11.1243C55.0391 14.3612 56.8576 18.7515 56.8576 23.3293V60.4139C54.6727 58.0068 52.0083 56.0835 49.0357 54.7677C46.0631 53.4519 42.848 52.7726 39.5972 52.7736C38.7893 52.7736 38.0146 53.0945 37.4434 53.6657C36.8721 54.2369 36.5512 55.0117 36.5512 55.8195C36.5512 56.6274 36.8721 57.4021 37.4434 57.9734C38.0146 58.5446 38.7893 58.8655 39.5972 58.8655C44.1749 58.8655 48.5652 60.684 51.8022 63.921C55.0391 67.158 56.8576 71.5482 56.8576 76.126C56.8576 80.7037 55.0391 85.094 51.8022 88.331C48.5652 91.5679 44.1749 93.3864 39.5972 93.3864ZM92.3939 71.0494H88.3326C87.5248 71.0494 86.75 71.3703 86.1788 71.9415C85.6076 72.5127 85.2866 73.2875 85.2866 74.0953C85.2866 74.9032 85.6076 75.6779 86.1788 76.2492C86.75 76.8204 87.5248 77.1413 88.3326 77.1413H92.3939C94.0973 77.1412 95.7969 76.9814 97.4705 76.6641C97.3648 80.053 96.2633 83.3357 94.3036 86.1025C92.3439 88.8693 89.6127 90.9976 86.451 92.2219C83.2892 93.4462 79.8369 93.7122 76.5249 92.9866C73.2129 92.2611 70.188 90.5762 67.8276 88.1422C65.4672 85.7082 63.8759 82.633 63.2524 79.3003C62.6288 75.9676 63.0006 72.5251 64.3214 69.4024C65.6421 66.2797 67.8533 63.6151 70.6789 61.7412C73.5046 59.8673 76.8195 58.8672 80.21 58.8655C81.0179 58.8655 81.7926 58.5446 82.3639 57.9734C82.9351 57.4021 83.256 56.6274 83.256 55.8195C83.256 55.0117 82.9351 54.2369 82.3639 53.6657C81.7926 53.0945 81.0179 52.7736 80.21 52.7736C76.9592 52.7726 73.7441 53.4519 70.7715 54.7677C67.7989 56.0835 65.1345 58.0068 62.9496 60.4139V23.3293C62.9496 18.7515 64.7681 14.3612 68.005 11.1243C71.242 7.8873 75.6323 6.06879 80.21 6.06879C84.7878 6.06879 89.1781 7.8873 92.415 11.1243C95.652 14.3612 97.4705 18.7515 97.4705 23.3293V26.7458C97.4702 27.376 97.6653 27.9907 98.029 28.5053C98.3927 29.02 98.907 29.4091 99.5011 29.6192C104.248 31.2927 108.249 34.5912 110.797 38.9311C113.346 43.2709 114.277 48.3723 113.426 53.3327C112.575 58.293 109.997 62.7924 106.148 66.0348C102.299 69.2772 97.4267 71.0535 92.3939 71.0494ZM99.5011 43.6357C99.5011 44.4435 99.1802 45.2183 98.609 45.7895C98.0378 46.3607 97.263 46.6817 96.4552 46.6817H94.4245C89.8468 46.6817 85.4565 44.8631 82.2195 41.6262C78.9826 38.3892 77.1641 33.9989 77.1641 29.4212V27.3905C77.1641 26.5827 77.485 25.808 78.0562 25.2367C78.6274 24.6655 79.4022 24.3446 80.21 24.3446C81.0179 24.3446 81.7926 24.6655 82.3639 25.2367C82.9351 25.808 83.256 26.5827 83.256 27.3905V29.4212C83.256 32.3833 84.4327 35.224 86.5272 37.3185C88.6217 39.413 91.4624 40.5897 94.4245 40.5897H96.4552C97.263 40.5897 98.0378 40.9106 98.609 41.4819C99.1802 42.0531 99.5011 42.8278 99.5011 43.6357ZM25.3827 46.6817H23.352C22.5442 46.6817 21.7694 46.3607 21.1982 45.7895C20.627 45.2183 20.3061 44.4435 20.3061 43.6357C20.3061 42.8278 20.627 42.0531 21.1982 41.4819C21.7694 40.9106 22.5442 40.5897 23.352 40.5897H25.3827C28.3448 40.5897 31.1855 39.413 33.28 37.3185C35.3745 35.224 36.5512 32.3833 36.5512 29.4212V27.3905C36.5512 26.5827 36.8721 25.808 37.4434 25.2367C38.0146 24.6655 38.7893 24.3446 39.5972 24.3446C40.405 24.3446 41.1798 24.6655 41.751 25.2367C42.3222 25.808 42.6431 26.5827 42.6431 27.3905V29.4212C42.6431 33.9989 40.8246 38.3892 37.5877 41.6262C34.3507 44.8631 29.9604 46.6817 25.3827 46.6817Z" fill="url(#paint0_linear_124_3021)"/>
<defs>
<linearGradient id="paint0_linear_124_3021" x1="59.9038" y1="0" x2="59.9038" y2="99.4552" gradientUnits="userSpaceOnUse">
<stop stop-color="white"/>
<stop offset="1" stop-color="#4D4D4D" stop-opacity="0.01"/>
</linearGradient>
</defs>
</svg>
