<svg width="98" height="100" viewBox="0 0 98 100" fill="none" xmlns="http://www.w3.org/2000/svg">
<path d="M89.5947 52.9389C88.7986 52.0328 88.3596 50.8679 88.3596 49.6617C88.3596 48.4555 88.7986 47.2906 89.5947 46.3845L95.9505 39.2342C96.6509 38.4529 97.0858 37.4699 97.1928 36.4262C97.2999 35.3825 97.0736 34.3317 96.5463 33.4245L86.6154 16.2439C86.0935 15.3378 85.2989 14.6196 84.3449 14.1916C83.3908 13.7636 82.326 13.6478 81.3023 13.8605L71.9672 15.7474C70.7793 15.9928 69.5427 15.795 68.4907 15.1912C67.4388 14.5875 66.6441 13.6196 66.2568 12.4701L63.2279 3.38329C62.8948 2.39704 62.2601 1.54042 61.4136 0.934516C60.5671 0.328611 59.5516 0.00406573 58.5107 0.00675287H38.6487C37.5659 -0.0497646 36.4943 0.249696 35.5977 0.859398C34.7011 1.4691 34.0287 2.35553 33.6832 3.38329L30.9025 12.4701C30.5152 13.6196 29.7206 14.5875 28.6686 15.1912C27.6166 15.795 26.38 15.9928 25.1922 15.7474L15.6088 13.8605C14.6383 13.7233 13.6489 13.8765 12.7653 14.3006C11.8817 14.7248 11.1433 15.4009 10.6433 16.2439L0.712305 33.4245C0.171861 34.3215 -0.0711403 35.3665 0.0180423 36.4099C0.107225 37.4533 0.524025 38.4419 1.20885 39.2342L7.51503 46.3845C8.3111 47.2906 8.75012 48.4555 8.75012 49.6617C8.75012 50.8679 8.3111 52.0328 7.51503 52.9389L1.20885 60.0892C0.524025 60.8815 0.107225 61.8701 0.0180423 62.9135C-0.0711403 63.9569 0.171861 65.0019 0.712305 65.8989L10.6433 83.0795C11.1652 83.9856 11.9597 84.7038 12.9138 85.1318C13.8678 85.5598 14.9326 85.6757 15.9564 85.4629L25.2915 83.576C26.4793 83.3306 27.7159 83.5284 28.7679 84.1322C29.8199 84.7359 30.6145 85.7038 31.0018 86.8533L34.0308 95.9401C34.3763 96.9679 35.0487 97.8543 35.9453 98.464C36.8419 99.0737 37.9135 99.3732 38.9963 99.3167H58.8582C59.8992 99.3193 60.9147 98.9948 61.7612 98.3889C62.6077 97.783 63.2424 96.9264 63.5755 95.9401L66.6044 86.8533C66.9917 85.7038 67.7863 84.7359 68.8383 84.1322C69.8903 83.5284 71.1269 83.3306 72.3147 83.576L81.6499 85.4629C82.6736 85.6757 83.7384 85.5598 84.6925 85.1318C85.6465 84.7038 86.4411 83.9856 86.963 83.0795L96.8939 65.8989C97.4211 64.9917 97.6475 63.9409 97.5404 62.8972C97.4333 61.8535 96.9984 60.8705 96.2981 60.0892L89.5947 52.9389ZM82.1961 59.5927L86.1685 64.0616L79.8126 75.085L73.9533 73.8933C70.3771 73.1623 66.6569 73.7698 63.499 75.6005C60.341 77.4312 57.9652 80.3576 56.8224 83.8243L54.9355 89.3857H42.2238L40.4363 83.725C39.2935 80.2583 36.9176 77.3318 33.7597 75.5012C30.6017 73.6705 26.8816 73.063 23.3053 73.794L17.446 74.9857L10.9909 64.012L14.9633 59.543C17.4061 56.8119 18.7566 53.2762 18.7566 49.612C18.7566 45.9478 17.4061 42.4122 14.9633 39.6811L10.9909 35.2121L17.3467 24.288L23.206 25.4797C26.7822 26.2108 30.5024 25.6033 33.6604 23.7726C36.8183 21.9419 39.1942 19.0155 40.3369 15.5488L42.2238 9.93774H54.9355L56.8224 15.5984C57.9652 19.0651 60.341 21.9916 63.499 23.8223C66.6569 25.6529 70.3771 26.2604 73.9533 25.5294L79.8126 24.3377L86.1685 35.3611L82.1961 39.83C79.7807 42.5549 78.447 46.0701 78.447 49.7114C78.447 53.3526 79.7807 56.8678 82.1961 59.5927ZM48.5797 29.7997C44.6513 29.7997 40.8112 30.9646 37.5449 33.1471C34.2787 35.3295 31.7329 38.4315 30.2296 42.0609C28.7263 45.6902 28.333 49.6837 29.0993 53.5366C29.8657 57.3894 31.7574 60.9285 34.5351 63.7062C37.3129 66.484 40.8519 68.3757 44.7048 69.142C48.5576 69.9084 52.5512 69.5151 56.1805 68.0118C59.8098 66.5085 62.9118 63.9627 65.0943 60.6964C67.2768 57.4301 68.4417 53.59 68.4417 49.6617C68.4417 44.394 66.3491 39.342 62.6242 35.6172C58.8994 31.8923 53.8474 29.7997 48.5797 29.7997ZM48.5797 59.5927C46.6155 59.5927 44.6954 59.0103 43.0623 57.919C41.4292 56.8278 40.1563 55.2768 39.4046 53.4621C38.653 51.6475 38.4563 49.6507 38.8395 47.7243C39.2227 45.7978 40.1685 44.0283 41.5574 42.6394C42.9463 41.2506 44.7158 40.3047 46.6422 39.9215C48.5687 39.5383 50.5654 39.735 52.3801 40.4867C54.1947 41.2383 55.7458 42.5112 56.837 44.1443C57.9282 45.7775 58.5107 47.6975 58.5107 49.6617C58.5107 52.2956 57.4644 54.8216 55.6019 56.684C53.7395 58.5464 51.2135 59.5927 48.5797 59.5927Z" fill="url(#paint0_linear_124_3015)"/>
<defs>
<linearGradient id="paint0_linear_124_3015" x1="48.7832" y1="0" x2="48.7832" y2="99.3234" gradientUnits="userSpaceOnUse">
<stop stop-color="white"/>
<stop offset="1" stop-color="#4D4D4D" stop-opacity="0.01"/>
</linearGradient>
</defs>
</svg>
