<svg width="80" height="100" viewBox="0 0 80 100" fill="none" xmlns="http://www.w3.org/2000/svg">
<path d="M39.7761 0C26.0683 0 14.916 11.1522 14.916 24.8601V34.8041H9.94403C4.4599 34.8041 0 39.264 0 44.7481V89.4963C0 94.9804 4.4599 99.4403 9.94403 99.4403H69.6082C75.0923 99.4403 79.5522 94.9804 79.5522 89.4963V44.7481C79.5522 39.264 75.0923 34.8041 69.6082 34.8041H64.6362V24.8601C64.6362 11.1522 53.484 0 39.7761 0ZM24.8601 24.8601C24.8601 16.6364 31.5524 9.94403 39.7761 9.94403C47.9998 9.94403 54.6922 16.6364 54.6922 24.8601V34.8041H24.8601V24.8601ZM69.6182 89.4963H44.7481V78.17C47.7065 76.4447 49.7201 73.2726 49.7201 69.6082C49.7201 64.1241 45.2602 59.6642 39.7761 59.6642C34.292 59.6642 29.8321 64.1241 29.8321 69.6082C29.8321 73.2676 31.8458 76.4447 34.8041 78.17V89.4963H9.94403V44.7481H69.6082L69.6182 89.4963Z" fill="url(#paint0_linear_124_3009)"/>
<defs>
<linearGradient id="paint0_linear_124_3009" x1="39.7761" y1="0" x2="39.7761" y2="99.4403" gradientUnits="userSpaceOnUse">
<stop stop-color="white"/>
<stop offset="1" stop-color="#4D4D4D" stop-opacity="0.01"/>
</linearGradient>
</defs>
</svg>
