<svg width="100" height="100" viewBox="0 0 100 100" fill="none" xmlns="http://www.w3.org/2000/svg">
<path d="M49.7201 99.4403C42.8422 99.4403 36.3786 98.1343 30.3293 95.5223C24.28 92.9103 19.018 89.3686 14.5431 84.8971C10.0683 80.4256 6.5266 75.1636 3.91795 69.111C1.3093 63.0584 0.00332097 56.5948 6.29368e-06 49.7201C-0.00330838 42.8455 1.30267 36.3819 3.91795 30.3293C6.53323 24.2767 10.075 19.0146 14.5431 14.5431C19.0113 10.0716 24.2734 6.52991 30.3293 3.91795C36.3852 1.30598 42.8488 0 49.7201 0C56.5914 0 63.0551 1.30598 69.111 3.91795C75.1669 6.52991 80.4289 10.0716 84.8971 14.5431C89.3653 19.0146 92.9087 24.2767 95.5273 30.3293C98.1459 36.3819 99.4502 42.8455 99.4403 49.7201C99.4303 56.5948 98.1243 63.0584 95.5223 69.111C92.9203 75.1636 89.3786 80.4256 84.8971 84.8971C80.4157 89.3686 75.1536 92.912 69.111 95.5273C63.0683 98.1426 56.6047 99.4469 49.7201 99.4403ZM49.7201 89.4962C60.8243 89.4962 70.2297 85.6429 77.9363 77.9363C85.6429 70.2297 89.4962 60.8243 89.4962 49.7201C89.4962 49.1401 89.4763 48.5384 89.4366 47.9153C89.3968 47.2921 89.3753 46.775 89.3719 46.364C88.9576 48.7672 87.8389 50.756 86.0158 52.3304C84.1927 53.9049 82.0382 54.6921 79.5522 54.6921H69.6082C66.8736 54.6921 64.5334 53.7193 62.5877 51.7736C60.642 49.8279 59.6675 47.486 59.6642 44.7481V39.7761H39.7761V29.8321C39.7761 27.0975 40.7506 24.7573 42.6996 22.8116C44.6487 20.8659 46.9888 19.8914 49.7201 19.8881H54.6921C54.6921 17.9821 55.2109 16.3049 56.2484 14.8564C57.2859 13.4079 58.5488 12.2262 60.0371 11.3113C58.3797 10.897 56.7025 10.5655 55.0054 10.3169C53.3083 10.0683 51.5465 9.94403 49.7201 9.94403C38.616 9.94403 29.2106 13.7973 21.504 21.504C13.7973 29.2106 9.94403 38.616 9.94403 49.7201H34.8041C40.2733 49.7201 44.9553 51.6675 48.85 55.5622C52.7448 59.457 54.6921 64.139 54.6921 69.6082V74.5802H39.7761V88.2532C41.4334 88.6676 43.0709 88.9791 44.6885 89.188C46.306 89.3968 47.9832 89.4995 49.7201 89.4962Z" fill="url(#paint0_linear_124_3027)"/>
<defs>
<linearGradient id="paint0_linear_124_3027" x1="49.7202" y1="0" x2="49.7202" y2="99.4403" gradientUnits="userSpaceOnUse">
<stop stop-color="white"/>
<stop offset="1" stop-color="#4D4D4D" stop-opacity="0.01"/>
</linearGradient>
</defs>
</svg>
